# Blender v2.93.3 OBJ File: 'Arrow.blend'
# www.blender.org
mtllib Arrow.mtl
o Cylinder
v 0.000000 0.020000 -0.700000
v 0.000000 0.007710 0.700754
v 0.014142 0.014142 -0.700000
v 0.005452 0.005452 0.700754
v 0.020000 0.000000 -0.700000
v 0.007710 -0.000000 0.700754
v 0.014142 -0.014142 -0.700000
v 0.005452 -0.005452 0.700754
v -0.000000 -0.020000 -0.700000
v -0.000000 -0.007710 0.700754
v -0.014142 -0.014142 -0.700000
v -0.005452 -0.005452 0.700754
v -0.020000 0.000000 -0.700000
v -0.007710 -0.000000 0.700754
v -0.014142 0.014142 -0.700000
v -0.005452 0.005452 0.700754
v 0.000000 0.020000 0.631830
v 0.014142 0.014142 0.631830
v 0.020000 -0.000000 0.631830
v 0.014142 -0.014142 0.631830
v -0.000000 -0.020000 0.631830
v -0.014142 -0.014142 0.631830
v -0.020000 -0.000000 0.631830
v -0.014142 0.014142 0.631830
v 0.000000 0.007710 0.693266
v 0.005452 0.005452 0.693266
v 0.007710 -0.000000 0.693266
v 0.005452 -0.005452 0.693266
v -0.000000 -0.007710 0.693266
v -0.005452 -0.005452 0.693266
v -0.007710 -0.000000 0.693266
v -0.005452 0.005452 0.693266
v 0.007625 0.007625 0.667629
v 0.010460 0.010460 0.648109
v 0.010784 -0.000000 0.667629
v 0.014793 -0.000000 0.648109
v 0.007625 -0.007625 0.667629
v 0.010460 -0.010460 0.648109
v -0.000000 -0.010784 0.667629
v -0.000000 -0.014793 0.648109
v -0.007625 -0.007625 0.667629
v -0.010460 -0.010460 0.648109
v -0.010784 -0.000000 0.667629
v -0.014793 -0.000000 0.648109
v -0.007625 0.007625 0.667629
v -0.010460 0.010460 0.648109
v -0.000000 0.014793 0.648108
v -0.000000 0.010784 0.667629
vt 1.000000 0.993063
vt 1.000000 1.000000
vt 0.875000 1.000000
vt 0.875000 0.993063
vt 0.750000 1.000000
vt 0.750000 0.993063
vt 0.625000 1.000000
vt 0.625000 0.993063
vt 0.500000 1.000000
vt 0.500000 0.993063
vt 0.375000 1.000000
vt 0.375000 0.993063
vt 0.250000 1.000000
vt 0.250000 0.993063
vt 0.419706 0.419706
vt 0.250000 0.490000
vt 0.080294 0.419706
vt 0.010000 0.250000
vt 0.080294 0.080294
vt 0.250000 0.010000
vt 0.419706 0.080294
vt 0.490000 0.250000
vt 0.125000 1.000000
vt 0.125000 0.993063
vt 0.000000 1.000000
vt 0.000000 0.993063
vt 0.750000 0.490000
vt 0.919706 0.419706
vt 0.990000 0.250000
vt 0.919706 0.080294
vt 0.750000 0.010000
vt 0.580294 0.080294
vt 0.510000 0.250000
vt 0.580294 0.419706
vt 0.125000 0.500000
vt 0.125000 0.975654
vt 0.000000 0.975654
vt 0.000000 0.500000
vt 0.250000 0.500000
vt 0.250000 0.975654
vt 0.375000 0.500000
vt 0.375000 0.975654
vt 0.500000 0.500000
vt 0.500000 0.975654
vt 0.625000 0.500000
vt 0.625000 0.975654
vt 0.750000 0.500000
vt 0.750000 0.975654
vt 0.875000 0.500000
vt 0.875000 0.975654
vt 1.000000 0.500000
vt 1.000000 0.975654
vt 0.125000 0.987260
vt 0.000000 0.987260
vt 0.250000 0.987260
vt 0.375000 0.987260
vt 0.500000 0.987260
vt 0.625000 0.987260
vt 0.750000 0.987260
vt 0.875000 0.987260
vt 1.000000 0.987260
vt 1.000000 0.981457
vt 0.875000 0.981457
vt 0.750000 0.981457
vt 0.625000 0.981457
vt 0.500000 0.981457
vt 0.375000 0.981457
vt 0.250000 0.981457
vt 0.125000 0.981457
vt 0.000000 0.981457
vt 0.000000 0.000000
vt 0.000000 0.000000
vt 0.000000 0.000000
vt 0.000000 0.000000
vt 0.000000 0.000000
vt 0.000000 0.000000
vt 0.000000 0.000000
vt 0.000000 0.000000
vn 0.3827 0.9239 0.0000
vn 0.9239 0.3827 0.0000
vn 0.9239 -0.3827 -0.0000
vn 0.3827 -0.9239 -0.0000
vn -0.3827 -0.9239 -0.0000
vn -0.9239 -0.3827 -0.0000
vn 0.0000 0.0000 1.0000
vn -0.9239 0.3827 0.0000
vn -0.3827 0.9239 0.0000
vn -0.0000 0.0000 -1.0000
vn -0.3804 0.9183 0.1101
vn -0.9183 0.3804 0.1101
vn -0.9183 -0.3804 0.1101
vn -0.3804 -0.9183 0.1101
vn 0.3804 -0.9183 0.1101
vn 0.9183 -0.3804 0.1101
vn 0.9183 0.3804 0.1101
vn 0.3804 0.9183 0.1101
vn 0.3670 0.8860 0.2834
vn 0.3760 0.9077 0.1864
vn 0.8860 0.3670 0.2834
vn 0.9077 0.3760 0.1864
vn 0.8860 -0.3670 0.2834
vn 0.9077 -0.3760 0.1864
vn 0.3670 -0.8860 0.2834
vn 0.3760 -0.9077 0.1864
vn -0.3670 -0.8860 0.2834
vn -0.3760 -0.9077 0.1864
vn -0.8860 -0.3670 0.2834
vn -0.9077 -0.3760 0.1864
vn -0.8860 0.3670 0.2834
vn -0.9077 0.3760 0.1864
vn -0.3670 0.8860 0.2834
vn -0.3760 0.9077 0.1864
usemtl None
s off
f 25/1/1 2/2/1 4/3/1 26/4/1
f 26/4/2 4/3/2 6/5/2 27/6/2
f 27/6/3 6/5/3 8/7/3 28/8/3
f 28/8/4 8/7/4 10/9/4 29/10/4
f 29/10/5 10/9/5 12/11/5 30/12/5
f 30/12/6 12/11/6 14/13/6 31/14/6
f 4/15/7 2/16/7 16/17/7 14/18/7 12/19/7 10/20/7 8/21/7 6/22/7
f 31/14/8 14/13/8 16/23/8 32/24/8
f 32/24/9 16/23/9 2/25/9 25/26/9
f 1/27/10 3/28/10 5/29/10 7/30/10 9/31/10 11/32/10 13/33/10 15/34/10
f 15/35/9 24/36/9 17/37/9 1/38/9
f 13/39/8 23/40/8 24/36/8 15/35/8
f 11/41/6 22/42/6 23/40/6 13/39/6
f 9/43/5 21/44/5 22/42/5 11/41/5
f 7/45/4 20/46/4 21/44/4 9/43/4
f 5/47/3 19/48/3 20/46/3 7/45/3
f 3/49/2 18/50/2 19/48/2 5/47/2
f 1/51/1 17/52/1 18/50/1 3/49/1
f 45/53/11 32/24/11 25/26/11 48/54/11
f 43/55/12 31/14/12 32/24/12 45/53/12
f 41/56/13 30/12/13 31/14/13 43/55/13
f 39/57/14 29/10/14 30/12/14 41/56/14
f 37/58/15 28/8/15 29/10/15 39/57/15
f 35/59/16 27/6/16 28/8/16 37/58/16
f 33/60/17 26/4/17 27/6/17 35/59/17
f 48/61/18 25/1/18 26/4/18 33/60/18
f 17/52/19 47/62/19 34/63/19 18/50/19
f 47/62/20 48/61/20 33/60/20 34/63/20
f 18/50/21 34/63/21 36/64/21 19/48/21
f 34/63/22 33/60/22 35/59/22 36/64/22
f 19/48/23 36/64/23 38/65/23 20/46/23
f 36/64/24 35/59/24 37/58/24 38/65/24
f 20/46/25 38/65/25 40/66/25 21/44/25
f 38/65/26 37/58/26 39/57/26 40/66/26
f 21/44/27 40/66/27 42/67/27 22/42/27
f 40/66/28 39/57/28 41/56/28 42/67/28
f 22/42/29 42/67/29 44/68/29 23/40/29
f 42/67/30 41/56/30 43/55/30 44/68/30
f 23/40/31 44/68/31 46/69/31 24/36/31
f 44/68/32 43/55/32 45/53/32 46/69/32
f 24/36/33 46/69/33 47/70/33 17/37/33
f 46/69/34 45/53/34 48/54/34 47/70/34
f 34/71/7 47/72/7 46/73/7 44/74/7 42/75/7 40/76/7 38/77/7 36/78/7
o Cube_Cube.001
v -0.000708 -0.000552 0.847187
v -0.000708 0.000552 0.847187
v -0.006050 -0.051011 0.631827
v -0.006050 0.051011 0.631827
v 0.000708 -0.000552 0.847187
v 0.000708 0.000552 0.847187
v 0.006050 -0.051011 0.631827
v 0.006050 0.051011 0.631827
vt 0.375000 0.000000
vt 0.625000 0.000000
vt 0.625000 0.250000
vt 0.375000 0.250000
vt 0.625000 0.500000
vt 0.375000 0.500000
vt 0.625000 0.750000
vt 0.375000 0.750000
vt 0.625000 1.000000
vt 0.375000 1.000000
vt 0.125000 0.500000
vt 0.125000 0.750000
vt 0.875000 0.500000
vt 0.875000 0.750000
vn -0.9997 0.0000 0.0248
vn 0.0000 0.0000 -1.0000
vn 0.9997 0.0000 0.0248
vn 0.0000 0.0000 1.0000
vn 0.0000 -0.9736 0.2281
vn 0.0000 0.9736 0.2281
usemtl None
s off
f 49/79/35 50/80/35 52/81/35 51/82/35
f 51/82/36 52/81/36 56/83/36 55/84/36
f 55/84/37 56/83/37 54/85/37 53/86/37
f 53/86/38 54/85/38 50/87/38 49/88/38
f 51/89/39 55/84/39 53/86/39 49/90/39
f 56/83/40 52/91/40 50/92/40 54/85/40
o Cube.001_Cube.002
v -0.000469 0.000602 0.846747
v 0.000469 0.000602 0.846747
v -0.051011 0.006050 0.631827
v 0.051011 0.006050 0.631827
v -0.000469 -0.000602 0.846747
v 0.000469 -0.000602 0.846747
v -0.051011 -0.006050 0.631827
v 0.051011 -0.006050 0.631827
vt 0.375000 0.000000
vt 0.625000 0.000000
vt 0.625000 0.250000
vt 0.375000 0.250000
vt 0.625000 0.500000
vt 0.375000 0.500000
vt 0.625000 0.750000
vt 0.375000 0.750000
vt 0.625000 1.000000
vt 0.375000 1.000000
vt 0.125000 0.500000
vt 0.125000 0.750000
vt 0.875000 0.500000
vt 0.875000 0.750000
vn -0.0000 0.9997 0.0253
vn 0.0000 0.0000 -1.0000
vn 0.0000 -0.9997 0.0253
vn -0.0000 0.0000 1.0000
vn -0.9734 0.0000 0.2289
vn 0.9734 0.0000 0.2289
usemtl None
s off
f 57/93/41 58/94/41 60/95/41 59/96/41
f 59/96/42 60/95/42 64/97/42 63/98/42
f 63/98/43 64/97/43 62/99/43 61/100/43
f 61/100/44 62/99/44 58/101/44 57/102/44
f 59/103/45 63/98/45 61/100/45 57/104/45
f 64/97/46 60/105/46 58/106/46 62/99/46
o Cube.006_Cube.009
v -0.002000 0.015000 -0.666734
v -0.002000 0.059500 -0.693266
v -0.002000 0.015000 -0.686734
v -0.002000 0.059500 -0.713266
v 0.002000 0.015000 -0.666734
v 0.002000 0.059500 -0.693266
v 0.002000 0.015000 -0.686734
v 0.002000 0.059500 -0.713266
v -0.002000 0.015000 -0.576734
v -0.002000 0.059500 -0.603266
v -0.002000 0.015000 -0.596734
v -0.002000 0.059500 -0.623266
v 0.002000 0.015000 -0.576734
v 0.002000 0.059500 -0.603266
v 0.002000 0.015000 -0.596734
v 0.002000 0.059500 -0.623266
v -0.002000 0.015000 -0.606734
v -0.002000 0.059500 -0.633266
v -0.002000 0.015000 -0.626734
v -0.002000 0.059500 -0.653266
v 0.002000 0.015000 -0.606734
v 0.002000 0.059500 -0.633266
v 0.002000 0.015000 -0.626734
v 0.002000 0.059500 -0.653266
v -0.002000 0.015000 -0.636734
v -0.002000 0.059500 -0.663266
v -0.002000 0.015000 -0.656734
v -0.002000 0.059500 -0.683266
v 0.002000 0.015000 -0.636734
v 0.002000 0.059500 -0.663266
v 0.002000 0.015000 -0.656734
v 0.002000 0.059500 -0.683266
vt 0.375000 0.000000
vt 0.625000 0.000000
vt 0.625000 0.250000
vt 0.375000 0.250000
vt 0.625000 0.500000
vt 0.375000 0.500000
vt 0.625000 0.750000
vt 0.375000 0.750000
vt 0.625000 1.000000
vt 0.375000 1.000000
vt 0.125000 0.500000
vt 0.125000 0.750000
vt 0.875000 0.500000
vt 0.875000 0.750000
vt 0.375000 0.000000
vt 0.625000 0.000000
vt 0.625000 0.250000
vt 0.375000 0.250000
vt 0.625000 0.500000
vt 0.375000 0.500000
vt 0.625000 0.750000
vt 0.375000 0.750000
vt 0.625000 1.000000
vt 0.375000 1.000000
vt 0.125000 0.500000
vt 0.125000 0.750000
vt 0.875000 0.500000
vt 0.875000 0.750000
vt 0.375000 0.000000
vt 0.625000 0.000000
vt 0.625000 0.250000
vt 0.375000 0.250000
vt 0.625000 0.500000
vt 0.375000 0.500000
vt 0.625000 0.750000
vt 0.375000 0.750000
vt 0.625000 1.000000
vt 0.375000 1.000000
vt 0.125000 0.500000
vt 0.125000 0.750000
vt 0.875000 0.500000
vt 0.875000 0.750000
vt 0.375000 0.000000
vt 0.625000 0.000000
vt 0.625000 0.250000
vt 0.375000 0.250000
vt 0.625000 0.500000
vt 0.375000 0.500000
vt 0.625000 0.750000
vt 0.375000 0.750000
vt 0.625000 1.000000
vt 0.375000 1.000000
vt 0.125000 0.500000
vt 0.125000 0.750000
vt 0.875000 0.500000
vt 0.875000 0.750000
vn -1.0000 0.0000 0.0000
vn 0.0000 -0.5121 -0.8589
vn 1.0000 0.0000 0.0000
vn 0.0000 0.5121 0.8589
vn 0.0000 -1.0000 0.0000
vn 0.0000 1.0000 0.0000
usemtl None
s off
f 65/107/47 66/108/47 68/109/47 67/110/47
f 67/110/48 68/109/48 72/111/48 71/112/48
f 71/112/49 72/111/49 70/113/49 69/114/49
f 69/114/50 70/113/50 66/115/50 65/116/50
f 67/117/51 71/112/51 69/114/51 65/118/51
f 72/111/52 68/119/52 66/120/52 70/113/52
f 73/121/47 74/122/47 76/123/47 75/124/47
f 75/124/48 76/123/48 80/125/48 79/126/48
f 79/126/49 80/125/49 78/127/49 77/128/49
f 77/128/50 78/127/50 74/129/50 73/130/50
f 75/131/51 79/126/51 77/128/51 73/132/51
f 80/125/52 76/133/52 74/134/52 78/127/52
f 81/135/47 82/136/47 84/137/47 83/138/47
f 83/138/48 84/137/48 88/139/48 87/140/48
f 87/140/49 88/139/49 86/141/49 85/142/49
f 85/142/50 86/141/50 82/143/50 81/144/50
f 83/145/51 87/140/51 85/142/51 81/146/51
f 88/139/52 84/147/52 82/148/52 86/141/52
f 89/149/47 90/150/47 92/151/47 91/152/47
f 91/152/48 92/151/48 96/153/48 95/154/48
f 95/154/49 96/153/49 94/155/49 93/156/49
f 93/156/50 94/155/50 90/157/50 89/158/50
f 91/159/51 95/154/51 93/156/51 89/160/51
f 96/153/52 92/161/52 90/162/52 94/155/52
o Cube.002_Cube.015
v 0.015000 0.002000 -0.666734
v 0.059500 0.002000 -0.693266
v 0.015000 0.002000 -0.686734
v 0.059500 0.002000 -0.713266
v 0.015000 -0.002000 -0.666734
v 0.059500 -0.002000 -0.693266
v 0.015000 -0.002000 -0.686734
v 0.059500 -0.002000 -0.713266
v 0.015000 0.002000 -0.576734
v 0.059500 0.002000 -0.603266
v 0.015000 0.002000 -0.596734
v 0.059500 0.002000 -0.623266
v 0.015000 -0.002000 -0.576734
v 0.059500 -0.002000 -0.603266
v 0.015000 -0.002000 -0.596734
v 0.059500 -0.002000 -0.623266
v 0.015000 0.002000 -0.606734
v 0.059500 0.002000 -0.633266
v 0.015000 0.002000 -0.626734
v 0.059500 0.002000 -0.653266
v 0.015000 -0.002000 -0.606734
v 0.059500 -0.002000 -0.633266
v 0.015000 -0.002000 -0.626734
v 0.059500 -0.002000 -0.653266
v 0.015000 0.002000 -0.636734
v 0.059500 0.002000 -0.663266
v 0.015000 0.002000 -0.656734
v 0.059500 0.002000 -0.683266
v 0.015000 -0.002000 -0.636734
v 0.059500 -0.002000 -0.663266
v 0.015000 -0.002000 -0.656734
v 0.059500 -0.002000 -0.683266
vt 0.375000 0.000000
vt 0.625000 0.000000
vt 0.625000 0.250000
vt 0.375000 0.250000
vt 0.625000 0.500000
vt 0.375000 0.500000
vt 0.625000 0.750000
vt 0.375000 0.750000
vt 0.625000 1.000000
vt 0.375000 1.000000
vt 0.125000 0.500000
vt 0.125000 0.750000
vt 0.875000 0.500000
vt 0.875000 0.750000
vt 0.375000 0.000000
vt 0.625000 0.000000
vt 0.625000 0.250000
vt 0.375000 0.250000
vt 0.625000 0.500000
vt 0.375000 0.500000
vt 0.625000 0.750000
vt 0.375000 0.750000
vt 0.625000 1.000000
vt 0.375000 1.000000
vt 0.125000 0.500000
vt 0.125000 0.750000
vt 0.875000 0.500000
vt 0.875000 0.750000
vt 0.375000 0.000000
vt 0.625000 0.000000
vt 0.625000 0.250000
vt 0.375000 0.250000
vt 0.625000 0.500000
vt 0.375000 0.500000
vt 0.625000 0.750000
vt 0.375000 0.750000
vt 0.625000 1.000000
vt 0.375000 1.000000
vt 0.125000 0.500000
vt 0.125000 0.750000
vt 0.875000 0.500000
vt 0.875000 0.750000
vt 0.375000 0.000000
vt 0.625000 0.000000
vt 0.625000 0.250000
vt 0.375000 0.250000
vt 0.625000 0.500000
vt 0.375000 0.500000
vt 0.625000 0.750000
vt 0.375000 0.750000
vt 0.625000 1.000000
vt 0.375000 1.000000
vt 0.125000 0.500000
vt 0.125000 0.750000
vt 0.875000 0.500000
vt 0.875000 0.750000
vn -0.0000 1.0000 0.0000
vn -0.5121 0.0000 -0.8589
vn 0.0000 -1.0000 0.0000
vn 0.5121 0.0000 0.8589
vn -1.0000 0.0000 0.0000
vn 1.0000 0.0000 0.0000
usemtl None
s off
f 97/163/53 98/164/53 100/165/53 99/166/53
f 99/166/54 100/165/54 104/167/54 103/168/54
f 103/168/55 104/167/55 102/169/55 101/170/55
f 101/170/56 102/169/56 98/171/56 97/172/56
f 99/173/57 103/168/57 101/170/57 97/174/57
f 104/167/58 100/175/58 98/176/58 102/169/58
f 105/177/53 106/178/53 108/179/53 107/180/53
f 107/180/54 108/179/54 112/181/54 111/182/54
f 111/182/55 112/181/55 110/183/55 109/184/55
f 109/184/56 110/183/56 106/185/56 105/186/56
f 107/187/57 111/182/57 109/184/57 105/188/57
f 112/181/58 108/189/58 106/190/58 110/183/58
f 113/191/53 114/192/53 116/193/53 115/194/53
f 115/194/54 116/193/54 120/195/54 119/196/54
f 119/196/55 120/195/55 118/197/55 117/198/55
f 117/198/56 118/197/56 114/199/56 113/200/56
f 115/201/57 119/196/57 117/198/57 113/202/57
f 120/195/58 116/203/58 114/204/58 118/197/58
f 121/205/53 122/206/53 124/207/53 123/208/53
f 123/208/54 124/207/54 128/209/54 127/210/54
f 127/210/55 128/209/55 126/211/55 125/212/55
f 125/212/56 126/211/56 122/213/56 121/214/56
f 123/215/57 127/210/57 125/212/57 121/216/57
f 128/209/58 124/217/58 122/218/58 126/211/58
o Cube.003_Cube.016
v -0.015000 -0.002000 -0.666734
v -0.059500 -0.002000 -0.693266
v -0.015000 -0.002000 -0.686734
v -0.059500 -0.002000 -0.713266
v -0.015000 0.002000 -0.666734
v -0.059500 0.002000 -0.693266
v -0.015000 0.002000 -0.686734
v -0.059500 0.002000 -0.713266
v -0.015000 -0.002000 -0.576734
v -0.059500 -0.002000 -0.603266
v -0.015000 -0.002000 -0.596734
v -0.059500 -0.002000 -0.623266
v -0.015000 0.002000 -0.576734
v -0.059500 0.002000 -0.603266
v -0.015000 0.002000 -0.596734
v -0.059500 0.002000 -0.623266
v -0.015000 -0.002000 -0.606734
v -0.059500 -0.002000 -0.633266
v -0.015000 -0.002000 -0.626734
v -0.059500 -0.002000 -0.653266
v -0.015000 0.002000 -0.606734
v -0.059500 0.002000 -0.633266
v -0.015000 0.002000 -0.626734
v -0.059500 0.002000 -0.653266
v -0.015000 -0.002000 -0.636734
v -0.059500 -0.002000 -0.663266
v -0.015000 -0.002000 -0.656734
v -0.059500 -0.002000 -0.683266
v -0.015000 0.002000 -0.636734
v -0.059500 0.002000 -0.663266
v -0.015000 0.002000 -0.656734
v -0.059500 0.002000 -0.683266
vt 0.375000 0.000000
vt 0.625000 0.000000
vt 0.625000 0.250000
vt 0.375000 0.250000
vt 0.625000 0.500000
vt 0.375000 0.500000
vt 0.625000 0.750000
vt 0.375000 0.750000
vt 0.625000 1.000000
vt 0.375000 1.000000
vt 0.125000 0.500000
vt 0.125000 0.750000
vt 0.875000 0.500000
vt 0.875000 0.750000
vt 0.375000 0.000000
vt 0.625000 0.000000
vt 0.625000 0.250000
vt 0.375000 0.250000
vt 0.625000 0.500000
vt 0.375000 0.500000
vt 0.625000 0.750000
vt 0.375000 0.750000
vt 0.625000 1.000000
vt 0.375000 1.000000
vt 0.125000 0.500000
vt 0.125000 0.750000
vt 0.875000 0.500000
vt 0.875000 0.750000
vt 0.375000 0.000000
vt 0.625000 0.000000
vt 0.625000 0.250000
vt 0.375000 0.250000
vt 0.625000 0.500000
vt 0.375000 0.500000
vt 0.625000 0.750000
vt 0.375000 0.750000
vt 0.625000 1.000000
vt 0.375000 1.000000
vt 0.125000 0.500000
vt 0.125000 0.750000
vt 0.875000 0.500000
vt 0.875000 0.750000
vt 0.375000 0.000000
vt 0.625000 0.000000
vt 0.625000 0.250000
vt 0.375000 0.250000
vt 0.625000 0.500000
vt 0.375000 0.500000
vt 0.625000 0.750000
vt 0.375000 0.750000
vt 0.625000 1.000000
vt 0.375000 1.000000
vt 0.125000 0.500000
vt 0.125000 0.750000
vt 0.875000 0.500000
vt 0.875000 0.750000
vn 0.0000 -1.0000 0.0000
vn 0.5121 0.0000 -0.8589
vn -0.0000 1.0000 0.0000
vn -0.5121 0.0000 0.8589
vn 1.0000 0.0000 0.0000
vn -1.0000 0.0000 0.0000
usemtl None
s off
f 129/219/59 130/220/59 132/221/59 131/222/59
f 131/222/60 132/221/60 136/223/60 135/224/60
f 135/224/61 136/223/61 134/225/61 133/226/61
f 133/226/62 134/225/62 130/227/62 129/228/62
f 131/229/63 135/224/63 133/226/63 129/230/63
f 136/223/64 132/231/64 130/232/64 134/225/64
f 137/233/59 138/234/59 140/235/59 139/236/59
f 139/236/60 140/235/60 144/237/60 143/238/60
f 143/238/61 144/237/61 142/239/61 141/240/61
f 141/240/62 142/239/62 138/241/62 137/242/62
f 139/243/63 143/238/63 141/240/63 137/244/63
f 144/237/64 140/245/64 138/246/64 142/239/64
f 145/247/59 146/248/59 148/249/59 147/250/59
f 147/250/60 148/249/60 152/251/60 151/252/60
f 151/252/61 152/251/61 150/253/61 149/254/61
f 149/254/62 150/253/62 146/255/62 145/256/62
f 147/257/63 151/252/63 149/254/63 145/258/63
f 152/251/64 148/259/64 146/260/64 150/253/64
f 153/261/59 154/262/59 156/263/59 155/264/59
f 155/264/60 156/263/60 160/265/60 159/266/60
f 159/266/61 160/265/61 158/267/61 157/268/61
f 157/268/62 158/267/62 154/269/62 153/270/62
f 155/271/63 159/266/63 157/268/63 153/272/63
f 160/265/64 156/273/64 154/274/64 158/267/64
o Cube.004_Cube.017
v 0.002000 -0.015000 -0.666734
v 0.002000 -0.059500 -0.693266
v 0.002000 -0.015000 -0.686734
v 0.002000 -0.059500 -0.713266
v -0.002000 -0.015000 -0.666734
v -0.002000 -0.059500 -0.693266
v -0.002000 -0.015000 -0.686734
v -0.002000 -0.059500 -0.713266
v 0.002000 -0.015000 -0.576734
v 0.002000 -0.059500 -0.603266
v 0.002000 -0.015000 -0.596734
v 0.002000 -0.059500 -0.623266
v -0.002000 -0.015000 -0.576734
v -0.002000 -0.059500 -0.603266
v -0.002000 -0.015000 -0.596734
v -0.002000 -0.059500 -0.623266
v 0.002000 -0.015000 -0.606734
v 0.002000 -0.059500 -0.633266
v 0.002000 -0.015000 -0.626734
v 0.002000 -0.059500 -0.653266
v -0.002000 -0.015000 -0.606734
v -0.002000 -0.059500 -0.633266
v -0.002000 -0.015000 -0.626734
v -0.002000 -0.059500 -0.653266
v 0.002000 -0.015000 -0.636734
v 0.002000 -0.059500 -0.663266
v 0.002000 -0.015000 -0.656734
v 0.002000 -0.059500 -0.683266
v -0.002000 -0.015000 -0.636734
v -0.002000 -0.059500 -0.663266
v -0.002000 -0.015000 -0.656734
v -0.002000 -0.059500 -0.683266
vt 0.375000 0.000000
vt 0.625000 0.000000
vt 0.625000 0.250000
vt 0.375000 0.250000
vt 0.625000 0.500000
vt 0.375000 0.500000
vt 0.625000 0.750000
vt 0.375000 0.750000
vt 0.625000 1.000000
vt 0.375000 1.000000
vt 0.125000 0.500000
vt 0.125000 0.750000
vt 0.875000 0.500000
vt 0.875000 0.750000
vt 0.375000 0.000000
vt 0.625000 0.000000
vt 0.625000 0.250000
vt 0.375000 0.250000
vt 0.625000 0.500000
vt 0.375000 0.500000
vt 0.625000 0.750000
vt 0.375000 0.750000
vt 0.625000 1.000000
vt 0.375000 1.000000
vt 0.125000 0.500000
vt 0.125000 0.750000
vt 0.875000 0.500000
vt 0.875000 0.750000
vt 0.375000 0.000000
vt 0.625000 0.000000
vt 0.625000 0.250000
vt 0.375000 0.250000
vt 0.625000 0.500000
vt 0.375000 0.500000
vt 0.625000 0.750000
vt 0.375000 0.750000
vt 0.625000 1.000000
vt 0.375000 1.000000
vt 0.125000 0.500000
vt 0.125000 0.750000
vt 0.875000 0.500000
vt 0.875000 0.750000
vt 0.375000 0.000000
vt 0.625000 0.000000
vt 0.625000 0.250000
vt 0.375000 0.250000
vt 0.625000 0.500000
vt 0.375000 0.500000
vt 0.625000 0.750000
vt 0.375000 0.750000
vt 0.625000 1.000000
vt 0.375000 1.000000
vt 0.125000 0.500000
vt 0.125000 0.750000
vt 0.875000 0.500000
vt 0.875000 0.750000
vn 1.0000 0.0000 0.0000
vn 0.0000 0.5121 -0.8589
vn -1.0000 -0.0000 0.0000
vn 0.0000 -0.5121 0.8589
vn 0.0000 1.0000 0.0000
vn 0.0000 -1.0000 0.0000
usemtl None
s off
f 161/275/65 162/276/65 164/277/65 163/278/65
f 163/278/66 164/277/66 168/279/66 167/280/66
f 167/280/67 168/279/67 166/281/67 165/282/67
f 165/282/68 166/281/68 162/283/68 161/284/68
f 163/285/69 167/280/69 165/282/69 161/286/69
f 168/279/70 164/287/70 162/288/70 166/281/70
f 169/289/65 170/290/65 172/291/65 171/292/65
f 171/292/66 172/291/66 176/293/66 175/294/66
f 175/294/67 176/293/67 174/295/67 173/296/67
f 173/296/68 174/295/68 170/297/68 169/298/68
f 171/299/69 175/294/69 173/296/69 169/300/69
f 176/293/70 172/301/70 170/302/70 174/295/70
f 177/303/65 178/304/65 180/305/65 179/306/65
f 179/306/66 180/305/66 184/307/66 183/308/66
f 183/308/67 184/307/67 182/309/67 181/310/67
f 181/310/68 182/309/68 178/311/68 177/312/68
f 179/313/69 183/308/69 181/310/69 177/314/69
f 184/307/70 180/315/70 178/316/70 182/309/70
f 185/317/65 186/318/65 188/319/65 187/320/65
f 187/320/66 188/319/66 192/321/66 191/322/66
f 191/322/67 192/321/67 190/323/67 189/324/67
f 189/324/68 190/323/68 186/325/68 185/326/68
f 187/327/69 191/322/69 189/324/69 185/328/69
f 192/321/70 188/329/70 186/330/70 190/323/70
